<svg xmlns="http://www.w3.org/2000/svg" width="640" height="320"><path fill="#173f4f" d="M0 0h640v320H0z"/><path fill-rule="evenodd" d="M220 89.169a25 25 0 0125-25h150a25 25 0 0125 25v100a25 25 0 01-25 25h-31.25a12.5 12.5 0 00-10 5L330 250.83a12.5 12.5 0 01-20 0l-23.75-31.662a12.5 12.5 0 00-10-5H245a25 25 0 01-25-25zm43.75 12.5a6.25 6.25 0 000 12.5h112.5a6.25 6.25 0 000-12.5zm0 31.25a6.25 6.25 0 000 12.5h112.5a6.25 6.25 0 000-12.5zm0 31.25a6.25 6.25 0 000 12.5h62.5a6.25 6.25 0 000-12.5z" fill="#fff"/></svg>