<svg xmlns="http://www.w3.org/2000/svg" width="640" height="320"><path fill="#173f4f" d="M0 0h640v320H0z"/><path d="M384.203 60c-41.607 0-49.411 59.26-26.006 59.26 23.403 0 67.614-59.26 26.006-59.26zm-64.286 7.26c-.661-.002-1.357.042-2.089.137-23.414 3.04-15.18 43.76-2.713 44.52 12.073.738 25.283-44.586 4.802-44.657zm-40.57 16.112c-1.237.027-2.588.322-4.058.929-18.82 7.766-2.857 39.822 7.686 37.668 9.727-1.983 10.978-38.92-3.627-38.597zM249.36 108.5c-1.636-.055-3.405.487-5.29 1.788-15.064 10.41 5.067 35.555 13.93 31.655 7.756-3.413 2.814-33.058-8.64-33.443zm83.59 19.231c-31.964.284-72.64 16.48-79.724 48.205-7.87 35.213 32.39 84.064 74.4 84.064 20.666 0 44.503-18.661 48.963-42.3 3.406-18.027-40.08-10.803-38.517 1.125 1.872 14.297-10.489 21.358-22.594 12.14-38.537-29.34 63.806-43.977 57.06-84.062-2.187-12.997-19.098-19.354-39.588-19.172z" fill="#fff"/></svg>