<svg xmlns="http://www.w3.org/2000/svg" width="640" height="320"><path opacity=".3" fill-rule="evenodd" d="M335.503 106.527a21.676 21.676 0 00-31.006 0l-4.666 4.785-6.675-.083a21.676 21.676 0 00-21.93 21.931l.074 6.675-4.77 4.666a21.676 21.676 0 000 31.006l4.778 4.665-.083 6.675a21.676 21.676 0 0021.931 21.931l6.676-.075 4.665 4.77a21.676 21.676 0 0031.006 0l4.665-4.777 6.676.082a21.676 21.676 0 0021.93-21.93l-.074-6.676 4.77-4.665a21.676 21.676 0 000-31.006l-4.778-4.666.083-6.675a21.676 21.676 0 00-21.931-21.93l-6.676.074-4.665-4.77zm2.153 44.882a3.755 3.755 0 00-5.31-5.31L312.5 165.95l-8.596-8.603a3.755 3.755 0 10-5.31 5.31l11.25 11.25a3.75 3.75 0 005.31 0z"/></svg>
