<svg xmlns="http://www.w3.org/2000/svg" height="320" width="640"><path fill="#173f4f" d="M0 0h640v320H0z"/><path d="M282.494 67C296.4 63.32 311.16 60 320 60c8.827 0 23.6 3.32 37.507 7a814.533 814.533 0 0136.96 10.867c7.04 2.24 12.347 8.306 13.373 15.786 7.64 55.96-10.08 97.427-31.56 124.867a149.213 149.213 0 01-32.24 30.667A92.56 92.56 0 01330.614 257c-3.6 1.653-7.44 3-10.614 3-3.173 0-7.013-1.347-10.613-3a92.107 92.107 0 01-13.427-7.813 149.227 149.227 0 01-32.226-30.667c-21.507-27.44-39.214-68.907-31.574-124.867a19.387 19.387 0 0113.374-15.786A814.8 814.8 0 01282.494 67zm44.373 91.787a20 20 0 10-14.133-.147 6.667 6.667 0 00-.587 1.813l-4.44 26.667a6.667 6.667 0 006.573 7.76h11.134a6.667 6.667 0 006.573-7.8l-4.627-26.667a6.667 6.667 0 00-.493-1.626z" fill-rule="evenodd" fill="#fff"/></svg>