<svg xmlns="http://www.w3.org/2000/svg" height="320" width="640"><path d="M0 0h640v320H0z" fill="#173f4f"/><path d="M313.618 100a60 60 0 00-47.235 23.117c7.318 1.955 12.498 3.636 14.049 4.157.024-.952.182-9.465.182-9.465s.02-.195.124-.296c.134-.131.328-.091.328-.091 1.924.278 43.009 6.368 60.327 16.46 2.138 1.251 3.194 2.581 4.513 3.93 4.787 4.95 11.112 25.537 11.792 29.783.026.167-.18.348-.268.416h-.002a25.89 25.89 0 01-1.564 1.14c-4.098 2.749-13.537 9.357-25.65 8.278-10.878-.962-25.092-7.203-42.227-18.493 1.685 3.945 3.345 7.902 5.006 11.856 2.481 1.289 26.432 13.494 38.253 13.255 9.52-.198 19.704-4.842 23.778-7.294 0 0 .894-.54 1.284-.239.426.33.308.834.207 1.35-.25 1.169-.82 3.302-1.209 4.315l-.327.826c-.466 1.249-.914 2.41-1.777 3.126-2.4 2.181-6.23 3.918-12.232 6.526-9.277 4.058-24.328 6.639-38.302 6.55-5.005-.112-9.84-.667-14.086-1.163-8.714-.984-15.803-1.782-20.126 1.345A60 60 0 00313.617 220a60 60 0 0060-60 60 60 0 00-60-60zM327 134.814c-4.696-.15-9.174 1.508-12.607 4.713-3.432 3.194-5.396 7.55-5.57 12.243-.324 9.682 7.277 17.84 16.95 18.197 4.718.158 9.187-1.5 12.62-4.725 3.423-3.185 5.387-7.54 5.569-12.234.332-9.673-7.278-17.848-16.962-18.194zm-.147 5.178c6.768.24 12.066 5.925 11.838 12.691-.104 3.263-1.48 6.287-3.871 8.53-2.395 2.233-5.524 3.394-8.808 3.294-6.752-.248-12.05-5.94-11.823-12.708.1-3.275 1.503-6.3 3.884-8.532 2.38-2.233 5.494-3.393 8.78-3.275zm2.006 6.152c-3.007 0-5.436 1.619-5.436 3.632 0 1.994 2.429 3.622 5.436 3.622 3.005 0 5.443-1.628 5.443-3.622 0-2.013-2.436-3.632-5.443-3.632z" opacity=".3"/></svg>