<svg xmlns="http://www.w3.org/2000/svg" height="320" width="640"><path d="M0 0h640v320H0z" fill="#173f4f"/><path opacity=".3" d="M257.39 115.653A15.653 15.653 0 01273.041 100h93.916a15.653 15.653 0 0115.653 15.653v62.61a15.653 15.653 0 01-15.653 15.653h-19.566a7.826 7.826 0 00-6.26 3.13L326.26 216.87a7.826 7.826 0 01-12.522 0l-14.87-19.823a7.826 7.826 0 00-6.261-3.13h-19.566a15.653 15.653 0 01-15.653-15.653zm27.392 7.826a3.913 3.913 0 000 7.826h70.436a3.913 3.913 0 000-7.826zm0 19.566a3.913 3.913 0 000 7.826h70.436a3.913 3.913 0 000-7.826zm0 19.566a3.913 3.913 0 000 7.826h39.131a3.913 3.913 0 000-7.826z" fill-rule="evenodd"/></svg>