<svg xmlns="http://www.w3.org/2000/svg" width="640" height="320"><path opacity=".3" fill-rule="evenodd" d="M297.497 104.2c8.343-2.208 17.2-4.2 22.503-4.2 5.296 0 14.16 1.992 22.504 4.2a488.72 488.72 0 0122.176 6.52c4.224 1.344 7.409 4.984 8.024 9.472 4.584 33.576-6.048 58.456-18.936 74.92a89.528 89.528 0 01-19.344 18.4 55.536 55.536 0 01-8.055 4.688c-2.16.992-4.464 1.8-6.369 1.8-1.904 0-4.208-.808-6.368-1.8a55.264 55.264 0 01-8.056-4.688 89.536 89.536 0 01-19.335-18.4c-12.905-16.464-23.529-41.344-18.945-74.92a11.632 11.632 0 018.025-9.472 488.88 488.88 0 0122.176-6.52zm26.623 55.072a12 12 0 10-8.48-.088 4 4 0 00-.352 1.088l-2.664 16a4 4 0 003.944 4.656h6.68a4 4 0 003.944-4.68l-2.776-16a4 4 0 00-.296-.976z"/></svg>
