<svg xmlns="http://www.w3.org/2000/svg" height="320" width="640"><path fill="#173f4f" d="M0 0h640v320H0z"/><path d="M276.449 100l5.508 12.93 13.467 15.383c-4.367.69-8.25 1.861-11.913 3.263-2.068.996-4.044 2.068-5.148 4.252l-3.354 5.944c-1.08 2.183-3.371 3.93-5.616 5.7l-9.192 7.177c1.83.889 3.47 2.053 4.98 3.432-1.624-.896-3.202-1.838-5.095-2.336-1.317-.207-2.62-.192-3.822.766-1.08.896-.958 2.413-.736 3.83.414 2.191 2.245 4.137 4.328 5.607 1.938.866 3.723.422 5.44-.59 1.486-1.378 2.09-3.8 1.907-7.108 1.072-.2.834 6.182 1.026 5.454.1-.39 15.758-8.22 19.902-9.192 4.229-1.089 10.824-1.44 15.596-2.927 2.965-.95 5.133-3.202 6.972-6.029l-1.479 3.141a8.45 8.45 0 01-4.857 3.677l-2.658 28.282-.054 27.348-4.626 6.894 3.148-.107 3.355-4.435-2.466 5.308s16.14-1.08 16.14-.965c0 .115-4.98-32.71-4.98-32.71s5.394-6.028 5.509-6.113c.115-.092 19.725 6.619 19.725 6.619l-3.018-3.563-2.482-1.37 3.01.995s6.994 8.472 7.025 8.595c.03.115 1.249-1.524 1.249-1.524l-7.323 29.722 9.728 3.317-.306-4.542 2.328 5.637 3.578.238-2.42-5.876 4.213 5.118 2.313-.46-4.167-5.998 4.864-28.956-5.608-4.428-4.343-5.822 4.113 4.19-4.458-6.35-.352-8.388 1.563 7.224 1.685-5.938-.874 6.933 3.241 7.11 6.48 4.825-.122 1.111 5.102-1.87 3.294-7.445.283-4.611.475 4.672s-2.834 6.864-2.834 7.101c0 .23 3.7-3.5 3.7-3.5l-4.06 4.78 6.488 11.705 2.199 12.762 1.616-1.157-.345.46-5.208 6.802 3.416-.743 1.325-2.099-.582 2.559 1.218.061-.283 2.796 2.543-2.275 1.9.59.59-3.394v3.448l1.784-.353.866 2.911 1.272-3.67 2.49-.114c-2.376-18.018-5.516-36.034-6.36-54.052-.091-3.432-2.971-9.499-6.074-13.467-3.624-4.175-11.023-13.099-21.525-15.604-5.73-.682-11.568.245-17.926 2.32-5.622 1.648-11.43 3.655-17.741 6.68 1.486 2.437 3.455 4.827 6.81 7.661 1.05 1.026 2.942 1.31 4.803 1.164-1.287.46-2.612.843-3.999.116-2.26-1.533-4.121-3.447-5.898-5.47a21.15 21.15 0 01-2.72-4.374c-1.072-2.436.192-5.53 2.26-8.856 1.877-2.305 3.945-4.558 8.15-6.174 3.785-1.509 7.585-3.018 11.177-5.01 4.06-2.635 10.541-11.03 13.988-16.898-9.392 3.447-18.776 6.204-28.113 11.704-3.494 2.399-6.918 6.114-10.41 9.96-1.487 1.685-3.096 3.263-5.21 4.381-2.903 1.555-4.902.076-6.243-1.11a44.606 44.606 0 01-5.493-7.332c-2.068-2.834-4.236-5.676-7.407-8.51-3.646-3.386-6.933-7.293-10.242-10.84zm59.414 9.292l-8.273 10.043 5.615-1.946-11.3 5.538zm-39.245 20.967c.728-.016 1.456 0 2.16.076-4.572.353-6.664 1.142-10.632 3.18 1.455-1.111 2.276-1.939 4.895-2.835a18.417 18.417 0 013.577-.421zm1.272 6.312c2.26.038 3.792 1.034 3.792 1.034-5.01-1.348-7.76-.23-9.905 3.049-.252-.207 1.425-3.057 3.647-3.731a7.954 7.954 0 012.466-.352zm-.383 1.685a5.822 5.822 0 011.417.115c.935.33 1.364 1.026 1.824 1.685-.974-.858-1.977-1.532-3.195-1.218 1.379.154 1.893 1.019 2.091 2.153.169 1.524-1.141 2.42-2.014 2.55-.874.13-1.992-.091-2.635-1.033-.184-.384-.675-1.793.107-2.796a7.66 7.66 0 00-2.313 1.47c.59-.858 1.31-1.532 2.397-2.252a5.102 5.102 0 012.321-.682zm-36.969 19.894c1.172 1.386 2.314 2.72 2.873 4.558.077 1.7-.674 1.662-1.41 1.655-.612-.008-1.777-.705-1.402-1.272a4.49 4.49 0 00.445-2.375zm-4.29.421c.92.966 1.824 1.609 1.992 2.957.069.322.13 1.119-.506.996-1.854-1.754-.735-1.563-1.478-3.953z" opacity=".3"/></svg>