<svg xmlns="http://www.w3.org/2000/svg" width="640" height="320"><path fill="#173f4f" d="M0 0h640v320H0z"/><path fill="#fff" d="M309.363 60a99.999 100 0 00-78.725 38.528c12.197 3.259 20.83 6.06 23.415 6.928.041-1.586.304-15.774.304-15.774s.033-.325.207-.494c.223-.218.546-.152.546-.152 3.208.464 71.682 10.614 100.545 27.433 3.564 2.086 5.324 4.303 7.522 6.55 7.978 8.252 18.52 42.563 19.653 49.639.044.278-.3.58-.446.694h-.004a43.15 43.15 0 01-2.606 1.899c-6.83 4.582-22.563 15.596-42.75 13.798-18.131-1.604-41.82-12.005-70.379-30.822 2.808 6.574 5.575 13.169 8.343 19.76 4.136 2.148 44.054 22.489 63.755 22.091 15.868-.33 32.84-8.07 39.63-12.157 0 0 1.491-.899 2.14-.397.71.549.514 1.39.346 2.248-.418 1.949-1.369 5.505-2.015 7.193l-.546 1.376c-.777 2.082-1.523 4.017-2.962 5.21-4 3.636-10.383 6.53-20.386 10.877-15.461 6.763-40.546 11.065-63.836 10.917-8.342-.186-16.4-1.112-23.477-1.938-14.523-1.64-26.339-2.97-33.544 2.241A99.999 100 0 00309.363 260a99.999 100 0 00100-100 99.999 100 0 00-100-100zm22.304 58.023c-7.827-.25-15.29 2.513-21.012 7.855-5.72 5.324-8.993 12.584-9.283 20.406-.54 16.136 12.129 29.733 28.251 30.327 7.863.264 15.31-2.5 21.032-7.874 5.705-5.308 8.978-12.568 9.282-20.39.554-16.122-12.13-29.747-28.27-30.324zm-.245 8.63c11.28.4 20.11 9.876 19.73 21.152-.174 5.438-2.468 10.479-6.452 14.217-3.991 3.721-9.207 5.656-14.68 5.49-11.253-.414-20.084-9.9-19.704-21.18.165-5.458 2.505-10.5 6.472-14.22 3.967-3.722 9.158-5.656 14.634-5.459zm3.343 10.254c-5.012 0-9.06 2.698-9.06 6.053 0 3.324 4.048 6.037 9.06 6.037 5.008 0 9.072-2.713 9.072-6.037 0-3.355-4.06-6.053-9.072-6.053z"/></svg>