<svg xmlns="http://www.w3.org/2000/svg" height="320" width="640"><path fill="#173f4f" d="M0 0h640v320H0z"/><path d="M245 172.5a25 25 0 00-25 25V210a25 25 0 0025 25h150a25 25 0 0025-25v-12.5a25 25 0 00-25-25zm6.25 37.5a6.25 6.25 0 100-12.5 6.25 6.25 0 000 12.5zm25 0a6.25 6.25 0 100-12.5 6.25 6.25 0 000 12.5zM245 85a25 25 0 00-25 25v12.5a25 25 0 0025 25h150a25 25 0 0025-25V110a25 25 0 00-25-25zm6.25 37.5a6.25 6.25 0 100-12.5 6.25 6.25 0 000 12.5zm25 0a6.25 6.25 0 100-12.5 6.25 6.25 0 000 12.5z" fill-rule="evenodd" fill="#fff"/></svg>