<svg xmlns="http://www.w3.org/2000/svg" height="320" width="640"><path opacity=".3" d="M358.522 100c-24.964 0-29.647 35.556-15.604 35.556 14.042 0 40.569-35.556 15.604-35.556zm-38.572 4.356a9.55 9.55 0 00-1.253.082c-14.049 1.824-9.108 26.256-1.628 26.712 7.244.443 15.17-26.751 2.881-26.794zm-24.342 9.667c-.742.016-1.553.193-2.435.558-11.292 4.66-1.714 23.893 4.612 22.6 5.836-1.19 6.587-23.352-2.176-23.158zM277.616 129.1c-.982-.033-2.043.292-3.174 1.073-9.038 6.246 3.04 21.333 8.358 18.993 4.654-2.048 1.688-19.835-5.184-20.066zm50.154 11.539c-19.178.17-43.584 9.888-47.834 28.923C275.214 190.689 299.37 220 324.576 220c12.4 0 26.701-11.197 29.377-25.38 2.044-10.816-24.048-6.482-23.11.675 1.123 8.578-6.293 12.815-13.556 7.284-23.122-17.604 38.283-26.386 34.236-50.437-1.312-7.798-11.459-11.613-23.753-11.503z"/></svg>
