<svg xmlns="http://www.w3.org/2000/svg" height="320" width="640"><path fill="#173f4f" d="M0 0h640v320H0z"/><path d="M345.838 70.878a36.126 36.126 0 00-51.676 0l-7.776 7.975-11.125-.137a36.126 36.126 0 00-36.552 36.551l.125 11.125-7.95 7.776a36.126 36.126 0 000 51.677l7.963 7.775-.138 11.125a36.126 36.126 0 0036.552 36.552l11.125-.125 7.776 7.95a36.126 36.126 0 0051.676 0l7.776-7.963 11.125.138a36.126 36.126 0 0036.552-36.552l-.125-11.125 7.95-7.775a36.126 36.126 0 000-51.677l-7.963-7.776.138-11.125a36.126 36.126 0 00-36.552-36.551l-11.125.125-7.776-7.95zm3.588 74.803a6.258 6.258 0 00-8.85-8.85L307.5 169.918l-14.326-14.338a6.258 6.258 0 10-8.85 8.85l18.75 18.751a6.25 6.25 0 008.85 0z" fill-rule="evenodd" fill="#fff"/></svg>