<svg xmlns="http://www.w3.org/2000/svg" height="320" width="640"><path fill="#173f4f" d="M0 0h640v320H0z"/><path d="M275 167.5a15 15 0 00-15 15v7.5a15 15 0 0015 15h90a15 15 0 0015-15v-7.5a15 15 0 00-15-15zm3.75 22.5a3.75 3.75 0 100-7.5 3.75 3.75 0 000 7.5zm15 0a3.75 3.75 0 100-7.5 3.75 3.75 0 000 7.5zM275 115a15 15 0 00-15 15v7.5a15 15 0 0015 15h90a15 15 0 0015-15V130a15 15 0 00-15-15zm3.75 22.5a3.75 3.75 0 100-7.5 3.75 3.75 0 000 7.5zm15 0a3.75 3.75 0 100-7.5 3.75 3.75 0 000 7.5z" fill-rule="evenodd" opacity=".3"/></svg>